Coordinates
version=1
nRows=14
nColumns=46
inDegrees=yes

Units are S.I. units (second, meters, Newtons, ...)
Angles are in degrees.

endheader
time	pelvis_tilt	pelvis_list	pelvis_rotation	pelvis_tx	pelvis_ty	pelvis_tz	bb_angle	bb_tx	bb_ty	bb_tz	hip_flexion_r	hip_adduction_r	hip_rotation_r	knee_angle_r	knee_angle_r_beta	ankle_angle_r	subtalar_angle_r	mtp_angle_r	crank_angle_r	hip_flexion_l	hip_adduction_l	hip_rotation_l	knee_angle_l	knee_angle_l_beta	ankle_angle_l	subtalar_angle_l	mtp_angle_l	crank_angle_l	lumbar_extension	lumbar_bending	lumbar_rotation	arm_flex_r	arm_add_r	arm_rot_r	elbow_flex_r	pro_sup_r	wrist_flex_r	wrist_dev_r	arm_flex_l	arm_add_l	arm_rot_l	elbow_flex_l	pro_sup_l	wrist_flex_l	wrist_dev_l
      7.50500000	    -11.17134892	      6.21844982	     -4.90058366	      0.11565297	      1.15406891	     -0.22333300	      0.00000000	      0.50000000	      0.00000000	      0.25000000	     34.97799801	     -3.42187793	     14.97594441	     29.35987478	      0.51242648	      8.98663457	    -10.58820708	      0.00000000	      0.00000000	     75.19261648	     -4.13371388	     -1.05657237	    108.44139557	      1.89265940	    -28.11850889	    -16.39587398	      0.00000000	      0.00000000	    -66.27415973	     -3.33403119	     -7.82208238	     88.96161896	    -20.90703230	     45.94947766	     74.83715805	     37.23323133	      0.00000000	      0.00000000	     87.45575023	    -45.39916656	     49.24545646	     79.00463239	     50.94170999	      0.00000000	      0.00000000
      7.51000000	    -10.89425142	      6.85925266	     -4.21298054	      0.11661082	      1.15449090	     -0.22253913	      0.00000000	      0.50000000	      0.00000000	      0.25000000	     33.49893645	     -4.70046074	     14.07721319	     28.18876453	      0.49198675	      8.54976303	     -9.64838299	      0.00000000	      0.00000000	     76.27890323	     -3.45928838	     -1.42251511	    109.25652007	      1.90688600	    -27.75233379	    -16.19254209	      0.00000000	      0.00000000	    -66.52756687	     -3.69843326	     -6.56053337	     88.71687762	    -24.80945404	     46.57380443	     76.89320713	     38.36819356	      0.00000000	      0.00000000	     87.88504383	    -41.17094719	     49.39458995	     76.59034410	     50.53725931	      0.00000000	      0.00000000
      7.51500000	    -11.01383770	      7.41229480	     -3.75209442	      0.11732640	      1.15403460	     -0.22117429	      0.00000000	      0.50000000	      0.00000000	      0.25000000	     32.54766020	     -5.61524830	     13.54165482	     27.20849954	      0.47487790	      8.06786328	     -9.17772692	      0.00000000	      0.00000000	     77.84294145	     -3.37777556	     -1.72473671	    110.12964006	      1.92212482	    -27.49589267	    -16.00736919	      0.00000000	      0.00000000	    -66.39304302	     -4.06956249	     -7.14330730	     88.41661164	    -25.16137346	     46.48532327	     76.86784246	     38.40927133	      0.00000000	      0.00000000	     87.90833753	    -40.65540992	     49.30005474	     76.65817466	     50.52786843	      0.00000000	      0.00000000
      7.52000000	    -10.85899834	      7.99581124	     -3.13342898	      0.11815471	      1.15376929	     -0.22076913	      0.00000000	      0.50000000	      0.00000000	      0.25000000	     31.44719115	     -6.80185863	     12.41417350	     26.60913104	      0.46441695	      8.16642245	     -7.87157029	      0.00000000	      0.00000000	     79.04849819	     -2.68845850	     -1.65770302	    110.91101563	      1.93576240	    -26.81097287	    -14.23476157	      0.00000000	      0.00000000	    -66.47095670	     -4.51910616	     -5.90087401	     87.90511068	    -28.94776545	     46.57954836	     78.95741969	     39.63592639	      0.00000000	      0.00000000	     88.18933211	    -36.50181012	     49.09816290	     74.24212731	     50.06510665	      0.00000000	      0.00000000
      7.52500000	    -10.92643722	      8.40898894	     -2.85421659	      0.11865838	      1.15299085	     -0.21935056	      0.00000000	      0.50000000	      0.00000000	      0.25000000	     30.65456273	     -7.42188426	     12.04831898	     26.11995370	      0.45587919	      8.03512342	     -7.58667276	      0.00000000	      0.00000000	     80.45285563	     -2.46883693	     -1.68468501	    111.61794556	      1.94810065	    -26.53527254	    -13.97634619	      0.00000000	      0.00000000	    -66.35964031	     -5.00564907	     -6.42428352	     87.61779597	    -29.21456358	     46.46970795	     78.91400965	     39.65224430	      0.00000000	      0.00000000	     88.22116947	    -36.15092858	     48.97904336	     74.30231153	     50.05379333	      0.00000000	      0.00000000
      7.53000000	    -10.92473856	      8.99680990	     -2.08479869	      0.11914527	      1.15261394	     -0.21882425	      0.00000000	      0.50000000	      0.00000000	      0.25000000	     29.91958766	     -8.60404821	     10.77566798	     26.04734978	      0.45461202	      8.34090903	     -5.98736725	      0.00000000	      0.00000000	     81.64489132	     -1.88218278	     -1.95856740	    112.06830002	      1.95596082	    -25.76532386	    -12.88984060	      0.00000000	      0.00000000	    -66.36369864	     -5.39375646	     -5.24268941	     86.56036490	    -32.74064795	     45.59104435	     81.00120778	     40.69959886	      0.00000000	      0.00000000	     88.36717002	    -32.04469241	     48.21618771	     72.03863745	     49.54259489	      0.00000000	      0.00000000
      7.53500000	    -11.03802532	      9.37257232	     -1.56171724	      0.11943317	      1.15186000	     -0.21771559	      0.00000000	      0.50000000	      0.00000000	      0.25000000	     29.34337546	     -9.22985804	     10.10302692	     26.02646526	      0.45424751	      8.31503396	     -5.95975428	      0.00000000	      0.00000000	     82.90070098	     -1.53698921	     -2.06024223	    112.43454259	      1.96235296	    -25.29308317	    -12.67023479	      0.00000000	      0.00000000	    -66.25871607	     -5.65305754	     -5.68661358	     86.20069822	    -33.16979622	     45.51193591	     80.94872325	     40.73761665	      0.00000000	      0.00000000	     88.48656506	    -31.59116414	     48.12276893	     72.10457359	     49.53771872	      0.00000000	      0.00000000
      7.54000000	    -11.15506231	      9.75296726	     -0.96815847	      0.11961088	      1.15114813	     -0.21688987	      0.00000000	      0.50000000	      0.00000000	      0.25000000	     28.97033382	     -9.94572949	      9.19179156	     26.42519687	      0.46120669	      8.68573010	     -5.24884159	      0.00000000	      0.00000000	     84.06049786	     -1.04498110	     -2.14551112	    112.60689897	      1.96536115	    -24.82199339	    -12.13713801	      0.00000000	      0.00000000	    -66.20365442	     -6.14707361	     -4.29322807	     84.78455248	    -36.67415747	     43.80314309	     83.34379861	     41.86792256	      0.00000000	      0.00000000	     88.60339999	    -27.55997960	     47.17807314	     69.85790673	     48.96444742	      0.00000000	      0.00000000
      7.54500000	    -11.28604004	     10.11048435	     -0.40463817	      0.11956178	      1.15054856	     -0.21583916	      0.00000000	      0.50000000	      0.00000000	      0.25000000	     28.67733078	    -10.50084297	      8.63359928	     26.95333488	      0.47042444	      8.67289549	     -5.46105636	      0.00000000	      0.00000000	     85.10310719	     -0.63778775	     -2.33575483	    112.60207203	      1.96527690	    -24.38116850	    -12.10585473	      0.00000000	      0.00000000	    -66.14878389	     -6.35175432	     -4.73375797	     84.50574761	    -37.11110471	     43.66278319	     83.32663114	     41.91535829	      0.00000000	      0.00000000	     88.70364899	    -27.10859031	     46.97401343	     69.92243439	     48.94084818	      0.00000000	      0.00000000
      7.55000000	    -11.43383784	     10.41583543	      0.16121191	      0.11930183	      1.14985103	     -0.21515053	      0.00000000	      0.50000000	      0.00000000	      0.25000000	     28.60638119	    -11.01677852	      8.00252769	     27.86057285	      0.48625873	      8.83578906	     -5.71970503	      0.00000000	      0.00000000	     86.09533951	     -0.06050048	     -2.37157219	    112.50208595	      1.96353182	    -23.89343196	    -11.98530520	      0.00000000	      0.00000000	    -66.08836072	     -6.53442479	     -5.04647973	     84.20598248	    -37.65027554	     43.34911801	     83.44371789	     41.97188531	      0.00000000	      0.00000000	     88.79457891	    -26.51053766	     46.60737850	     69.92871236	     48.88475047	      0.00000000	      0.00000000
      7.55500000	    -11.74091707	     10.66075441	      0.85316825	      0.11894397	      1.14920193	     -0.21436525	      0.00000000	      0.50000000	      0.00000000	      0.25000000	     28.76625438	    -11.48092202	      7.38949408	     28.95213085	      0.50531001	      9.16309226	     -5.59533306	      0.00000000	      0.00000000	     87.12967726	      0.58097012	     -2.38455628	    112.20606304	      1.95836524	    -23.30531683	    -11.76890323	      0.00000000	      0.00000000	    -66.02163711	     -6.94184082	     -3.16598611	     82.03931305	    -41.84341133	     40.54234673	     86.65432916	     43.15147937	      0.00000000	      0.00000000	     88.91050720	    -21.84566923	     45.31170766	     67.50763944	     48.09973242	      0.00000000	      0.00000000
      7.56000000	    -11.83336427	     10.82195549	      1.50686532	      0.11835408	      1.14894109	     -0.21362476	      0.00000000	      0.50000000	      0.00000000	      0.25000000	     28.85508438	    -11.79124125	      6.90357292	     30.32722058	      0.52930985	      9.18091775	     -6.28426865	      0.00000000	      0.00000000	     87.81130487	      1.27090557	     -2.32803380	    111.81931022	      1.95161513	    -22.53718699	    -11.86824797	      0.00000000	      0.00000000	    -66.10255339	     -6.88612948	     -3.51162885	     81.98034904	    -42.16549051	     40.40279802	     86.61765902	     43.17044975	      0.00000000	      0.00000000	     89.03523969	    -21.51421691	     45.13892367	     67.62908738	     48.08387237	      0.00000000	      0.00000000
      7.56500000	    -12.17237048	     11.16409296	      2.38289248	      0.11762589	      1.14852342	     -0.21329922	      0.00000000	      0.50000000	      0.00000000	      0.25000000	     29.42420376	    -12.42992705	      6.30551049	     32.15057640	      0.56113341	      9.51000999	     -6.36661754	      0.00000000	      0.00000000	     88.60943495	      2.21518891	     -2.44811238	    111.24709811	      1.94162815	    -21.48772380	    -11.46894154	      0.00000000	      0.00000000	    -66.11528877	     -6.93420594	     -3.23608256	     80.88095442	    -44.14743416	     38.95680111	     88.24964442	     43.71809869	      0.00000000	      0.00000000	     89.05284639	    -19.51785105	     44.08407706	     67.27657112	     47.70741377	      0.00000000	      0.00000000
      7.57000000	    -12.17794504	     11.22950458	      3.05930743	      0.11666339	      1.14874107	     -0.21270886	      0.00000000	      0.50000000	      0.00000000	      0.25000000	     29.72818867	    -12.62034618	      5.97707042	     34.05241912	      0.59432683	      9.27526496	     -7.32486044	      0.00000000	      0.00000000	     88.94492369	      2.90220988	     -2.40470679	    110.65000629	      1.93120693	    -20.45953719	    -11.71259425	      0.00000000	      0.00000000	    -66.33444429	     -6.71983227	     -3.46106722	     80.90618708	    -44.45696874	     38.78505252	     88.21832978	     43.72777317	      0.00000000	      0.00000000	     89.19043835	    -19.13388329	     44.02346567	     67.34510578	     47.69042153	      0.00000000	      0.00000000
